<svg width="61" height="61" viewBox="0 0 61 61" fill="none" xmlns="http://www.w3.org/2000/svg">
<g clip-path="url(#clip0_4_5)">
<path d="M43.2968 20.521L41.6293 18.5716C38.8341 15.304 34.8554 13.2805 30.5684 12.9464C26.2814 12.6123 22.0372 13.9948 18.7696 16.7899C15.5019 19.585 13.4785 23.5638 13.1443 27.8508C12.8102 32.1378 14.1928 36.382 16.9879 39.6496L18.6554 41.599C17.7604 43.4594 17.5316 45.5709 18.0074 47.5798C18.4832 49.5888 19.6347 51.3733 21.2691 52.6346C22.9035 53.896 24.9216 54.5576 26.9855 54.5088C29.0494 54.4599 31.034 53.7035 32.6068 52.3662C33.333 51.7451 33.7826 50.8609 33.8569 49.9083C33.9311 48.9556 33.6239 48.0124 33.0027 47.2863L25.9768 39.0725C25.3556 38.3464 24.4715 37.8967 23.5188 37.8225C22.5661 37.7482 21.623 38.0554 20.8968 38.6766L19.7258 37.3076C17.5518 34.7661 16.4765 31.4651 16.7364 28.1307C16.9963 24.7964 18.5701 21.7018 21.1116 19.5279C23.6531 17.3539 26.9541 16.2786 30.2884 16.5384C33.6228 16.7983 36.7173 18.3721 38.8913 20.9136L40.0623 22.2826C39.3362 22.9037 38.8865 23.7879 38.8123 24.7405C38.738 25.6932 39.0453 26.6364 39.6664 27.3625L46.6924 35.5763L42.5855 39.0893C42.2224 39.3999 41.9976 39.8419 41.9605 40.3183C41.9233 40.7946 42.077 41.2662 42.3875 41.6293C42.6981 41.9923 43.1402 42.2172 43.6165 42.2543C44.0929 42.2914 44.5644 42.1378 44.9275 41.8272L51.7723 35.9722C53.3372 34.6256 54.3919 32.7822 54.76 30.7507C55.128 28.7193 54.7871 26.6231 53.7942 24.813C52.8013 23.0029 51.2167 21.5888 49.3057 20.8075C47.3948 20.0262 45.2734 19.9251 43.2968 20.521ZM30.2648 49.6283C29.1756 50.56 27.7609 51.0209 26.3319 50.9095C24.9029 50.7981 23.5766 50.1236 22.6449 49.0344C21.7132 47.9452 21.2524 46.5305 21.3637 45.1015C21.4751 43.6724 22.1496 42.3462 23.2388 41.4145L30.2648 49.6283ZM49.4303 33.2343L42.4043 25.0205C43.4935 24.0888 44.9083 23.6279 46.3373 23.7393C47.7663 23.8507 49.0925 24.5252 50.0242 25.6144C50.9559 26.7036 51.4168 28.1183 51.3054 29.5473C51.194 30.9764 50.5195 32.3026 49.4303 33.2343Z" fill="#DFB751"/>
</g>
<defs>
<clipPath id="clip0_4_5">
<rect width="43.2353" height="43.2353" fill="white" transform="translate(0 28.104) rotate(-40.5434)"/>
</clipPath>
</defs>
</svg>
