<svg width="234" height="61" viewBox="0 0 234 61" fill="none" xmlns="http://www.w3.org/2000/svg">
<path d="M3.071 46.3641V20.4641H14.282C16.6007 20.4641 18.5987 20.8465 20.276 21.6111C21.9533 22.3511 23.2483 23.4241 24.161 24.8301C25.0737 26.2361 25.53 27.9135 25.53 29.8621C25.53 31.7861 25.0737 33.4511 24.161 34.8571C23.2483 36.2631 21.9533 37.3485 20.276 38.1131C18.5987 38.8531 16.6007 39.2231 14.282 39.2231H6.401L9.065 36.5221V46.3641H3.071ZM9.065 37.1881L6.401 34.3391H13.949C15.799 34.3391 17.1803 33.9445 18.093 33.1551C19.0057 32.3658 19.462 31.2681 19.462 29.8621C19.462 28.4315 19.0057 27.3215 18.093 26.5321C17.1803 25.7428 15.799 25.3481 13.949 25.3481H6.401L9.065 22.4991V37.1881ZM29.4023 46.3641V26.4581H34.9153V32.0821L34.1383 30.4541C34.7303 29.0481 35.6799 27.9875 36.9873 27.2721C38.2946 26.5321 39.8856 26.1621 41.7603 26.1621V31.4901C41.5136 31.4655 41.2916 31.4531 41.0943 31.4531C40.8969 31.4285 40.6873 31.4161 40.4653 31.4161C38.8866 31.4161 37.6039 31.8725 36.6173 32.7851C35.6553 33.6731 35.1743 35.0668 35.1743 36.9661V46.3641H29.4023ZM54.4837 46.6601C52.3623 46.6601 50.4753 46.2161 48.8227 45.3281C47.1947 44.4401 45.8997 43.2315 44.9377 41.7021C44.0003 40.1481 43.5317 38.3845 43.5317 36.4111C43.5317 34.4131 44.0003 32.6495 44.9377 31.1201C45.8997 29.5661 47.1947 28.3575 48.8227 27.4941C50.4753 26.6061 52.3623 26.1621 54.4837 26.1621C56.5803 26.1621 58.455 26.6061 60.1077 27.4941C61.7603 28.3575 63.0553 29.5538 63.9927 31.0831C64.93 32.6125 65.3987 34.3885 65.3987 36.4111C65.3987 38.3845 64.93 40.1481 63.9927 41.7021C63.0553 43.2315 61.7603 44.4401 60.1077 45.3281C58.455 46.2161 56.5803 46.6601 54.4837 46.6601ZM54.4837 41.9241C55.4457 41.9241 56.309 41.7021 57.0737 41.2581C57.8383 40.8141 58.4427 40.1851 58.8867 39.3711C59.3307 38.5325 59.5527 37.5458 59.5527 36.4111C59.5527 35.2518 59.3307 34.2651 58.8867 33.4511C58.4427 32.6371 57.8383 32.0081 57.0737 31.5641C56.309 31.1201 55.4457 30.8981 54.4837 30.8981C53.5217 30.8981 52.6583 31.1201 51.8937 31.5641C51.129 32.0081 50.5123 32.6371 50.0437 33.4511C49.5997 34.2651 49.3777 35.2518 49.3777 36.4111C49.3777 37.5458 49.5997 38.5325 50.0437 39.3711C50.5123 40.1851 51.129 40.8141 51.8937 41.2581C52.6583 41.7021 53.5217 41.9241 54.4837 41.9241ZM120.088 46.8081C118.016 46.8081 116.03 46.5368 114.131 45.9941C112.232 45.4268 110.702 44.6991 109.543 43.8111L111.578 39.2971C112.688 40.0865 113.995 40.7401 115.5 41.2581C117.029 41.7515 118.571 41.9981 120.125 41.9981C121.309 41.9981 122.259 41.8871 122.974 41.6651C123.714 41.4185 124.257 41.0855 124.602 40.6661C124.947 40.2468 125.12 39.7658 125.12 39.2231C125.12 38.5325 124.849 37.9898 124.306 37.5951C123.763 37.1758 123.048 36.8428 122.16 36.5961C121.272 36.3248 120.285 36.0781 119.2 35.8561C118.139 35.6095 117.066 35.3135 115.981 34.9681C114.92 34.6228 113.946 34.1788 113.058 33.6361C112.17 33.0935 111.442 32.3781 110.875 31.4901C110.332 30.6021 110.061 29.4675 110.061 28.0861C110.061 26.6061 110.456 25.2618 111.245 24.0531C112.059 22.8198 113.268 21.8455 114.871 21.1301C116.499 20.3901 118.534 20.0201 120.976 20.0201C122.604 20.0201 124.207 20.2175 125.786 20.6121C127.365 20.9821 128.758 21.5495 129.967 22.3141L128.117 26.8651C126.908 26.1745 125.7 25.6688 124.491 25.3481C123.282 25.0028 122.098 24.8301 120.939 24.8301C119.78 24.8301 118.83 24.9658 118.09 25.2371C117.35 25.5085 116.82 25.8661 116.499 26.3101C116.178 26.7295 116.018 27.2228 116.018 27.7901C116.018 28.4561 116.289 28.9988 116.832 29.4181C117.375 29.8128 118.09 30.1335 118.978 30.3801C119.866 30.6268 120.84 30.8735 121.901 31.1201C122.986 31.3668 124.059 31.6505 125.12 31.9711C126.205 32.2918 127.192 32.7235 128.08 33.2661C128.968 33.8088 129.683 34.5241 130.226 35.4121C130.793 36.3001 131.077 37.4225 131.077 38.7791C131.077 40.2345 130.67 41.5665 129.856 42.7751C129.042 43.9838 127.821 44.9581 126.193 45.6981C124.59 46.4381 122.555 46.8081 120.088 46.8081ZM144.238 46.6601C142.116 46.6601 140.229 46.2161 138.577 45.3281C136.949 44.4401 135.654 43.2315 134.692 41.7021C133.754 40.1481 133.286 38.3845 133.286 36.4111C133.286 34.4131 133.754 32.6495 134.692 31.1201C135.654 29.5661 136.949 28.3575 138.577 27.4941C140.229 26.6061 142.116 26.1621 144.238 26.1621C146.334 26.1621 148.209 26.6061 149.862 27.4941C151.514 28.3575 152.809 29.5538 153.747 31.0831C154.684 32.6125 155.153 34.3885 155.153 36.4111C155.153 38.3845 154.684 40.1481 153.747 41.7021C152.809 43.2315 151.514 44.4401 149.862 45.3281C148.209 46.2161 146.334 46.6601 144.238 46.6601ZM144.238 41.9241C145.2 41.9241 146.063 41.7021 146.828 41.2581C147.592 40.8141 148.197 40.1851 148.641 39.3711C149.085 38.5325 149.307 37.5458 149.307 36.4111C149.307 35.2518 149.085 34.2651 148.641 33.4511C148.197 32.6371 147.592 32.0081 146.828 31.5641C146.063 31.1201 145.2 30.8981 144.238 30.8981C143.276 30.8981 142.412 31.1201 141.648 31.5641C140.883 32.0081 140.266 32.6371 139.798 33.4511C139.354 34.2651 139.132 35.2518 139.132 36.4111C139.132 37.5458 139.354 38.5325 139.798 39.3711C140.266 40.1851 140.883 40.8141 141.648 41.2581C142.412 41.7021 143.276 41.9241 144.238 41.9241ZM167.41 46.6601C165.757 46.6601 164.277 46.3395 162.97 45.6981C161.687 45.0568 160.688 44.0825 159.973 42.7751C159.257 41.4431 158.9 39.7535 158.9 37.7061V26.4581H164.672V36.8551C164.672 38.5078 165.017 39.7288 165.708 40.5181C166.423 41.2828 167.422 41.6651 168.705 41.6651C169.593 41.6651 170.382 41.4801 171.073 41.1101C171.763 40.7155 172.306 40.1235 172.701 39.3341C173.095 38.5201 173.293 37.5088 173.293 36.3001V26.4581H179.065V46.3641H173.589V40.8881L174.588 42.4791C173.922 43.8605 172.935 44.9088 171.628 45.6241C170.345 46.3148 168.939 46.6601 167.41 46.6601ZM196.511 26.1621C198.09 26.1621 199.496 26.4828 200.729 27.1241C201.987 27.7408 202.974 28.7028 203.689 30.0101C204.404 31.2928 204.762 32.9455 204.762 34.9681V46.3641H198.99V35.8561C198.99 34.2528 198.632 33.0688 197.917 32.3041C197.226 31.5395 196.24 31.1571 194.957 31.1571C194.044 31.1571 193.218 31.3545 192.478 31.7491C191.763 32.1191 191.195 32.6988 190.776 33.4881C190.381 34.2775 190.184 35.2888 190.184 36.5221V46.3641H184.412V26.4581H189.925V31.9711L188.889 30.3061C189.604 28.9741 190.628 27.9505 191.96 27.2351C193.292 26.5198 194.809 26.1621 196.511 26.1621ZM218.686 46.6601C216.811 46.6601 215.121 46.2408 213.617 45.4021C212.112 44.5388 210.916 43.3425 210.028 41.8131C209.164 40.2838 208.733 38.4831 208.733 36.4111C208.733 34.3145 209.164 32.5015 210.028 30.9721C210.916 29.4428 212.112 28.2588 213.617 27.4201C215.121 26.5815 216.811 26.1621 218.686 26.1621C220.363 26.1621 221.831 26.5321 223.089 27.2721C224.347 28.0121 225.321 29.1345 226.012 30.6391C226.702 32.1438 227.048 34.0678 227.048 36.4111C227.048 38.7298 226.715 40.6538 226.049 42.1831C225.383 43.6878 224.421 44.8101 223.163 45.5501C221.929 46.2901 220.437 46.6601 218.686 46.6601ZM219.685 41.9241C220.622 41.9241 221.473 41.7021 222.238 41.2581C223.002 40.8141 223.607 40.1851 224.051 39.3711C224.519 38.5325 224.754 37.5458 224.754 36.4111C224.754 35.2518 224.519 34.2651 224.051 33.4511C223.607 32.6371 223.002 32.0081 222.238 31.5641C221.473 31.1201 220.622 30.8981 219.685 30.8981C218.723 30.8981 217.859 31.1201 217.095 31.5641C216.33 32.0081 215.713 32.6371 215.245 33.4511C214.801 34.2651 214.579 35.2518 214.579 36.4111C214.579 37.5458 214.801 38.5325 215.245 39.3711C215.713 40.1851 216.33 40.8141 217.095 41.2581C217.859 41.7021 218.723 41.9241 219.685 41.9241ZM224.902 46.3641V42.2941L225.013 36.3741L224.643 30.4911V18.9101H230.415V46.3641H224.902Z" fill="#DFB751"/>
<g clip-path="url(#clip0_76_45)">
<path d="M96.2968 20.521L94.6293 18.5716C91.8341 15.304 87.8554 13.2805 83.5684 12.9464C79.2814 12.6123 75.0372 13.9948 71.7696 16.7899C68.5019 19.585 66.4785 23.5638 66.1443 27.8508C65.8102 32.1378 67.1928 36.382 69.9879 39.6496L71.6554 41.599C70.7604 43.4594 70.5316 45.5709 71.0074 47.5798C71.4832 49.5888 72.6347 51.3733 74.2691 52.6346C75.9035 53.896 77.9216 54.5576 79.9855 54.5088C82.0494 54.4599 84.034 53.7035 85.6068 52.3662C86.333 51.7451 86.7826 50.8609 86.8569 49.9083C86.9311 48.9556 86.6239 48.0124 86.0027 47.2863L78.9768 39.0725C78.3556 38.3464 77.4715 37.8967 76.5188 37.8225C75.5661 37.7482 74.623 38.0554 73.8968 38.6766L72.7258 37.3076C70.5518 34.7661 69.4765 31.4651 69.7364 28.1307C69.9963 24.7964 71.5701 21.7018 74.1116 19.5279C76.6531 17.3539 79.9541 16.2786 83.2884 16.5384C86.6228 16.7983 89.7173 18.3721 91.8913 20.9136L93.0623 22.2826C92.3362 22.9037 91.8865 23.7879 91.8123 24.7405C91.738 25.6932 92.0453 26.6364 92.6664 27.3625L99.6924 35.5763L95.5855 39.0893C95.2224 39.3999 94.9976 39.8419 94.9605 40.3183C94.9233 40.7946 95.077 41.2662 95.3875 41.6293C95.6981 41.9923 96.1402 42.2172 96.6165 42.2543C97.0929 42.2914 97.5644 42.1378 97.9275 41.8272L104.772 35.9722C106.337 34.6256 107.392 32.7822 107.76 30.7507C108.128 28.7193 107.787 26.6231 106.794 24.813C105.801 23.0029 104.217 21.5888 102.306 20.8075C100.395 20.0262 98.2734 19.9251 96.2968 20.521ZM83.2648 49.6283C82.1756 50.56 80.7609 51.0209 79.3319 50.9095C77.9029 50.7981 76.5766 50.1236 75.6449 49.0344C74.7132 47.9452 74.2524 46.5305 74.3637 45.1015C74.4751 43.6724 75.1496 42.3462 76.2388 41.4145L83.2648 49.6283ZM102.43 33.2343L95.4043 25.0205C96.4935 24.0888 97.9083 23.6279 99.3373 23.7393C100.766 23.8507 102.093 24.5252 103.024 25.6144C103.956 26.7036 104.417 28.1183 104.305 29.5473C104.194 30.9764 103.52 32.3026 102.43 33.2343Z" fill="#DFB751"/>
</g>
<defs>
<clipPath id="clip0_76_45">
<rect width="43.2353" height="43.2353" fill="white" transform="translate(53 28.104) rotate(-40.5434)"/>
</clipPath>
</defs>
</svg>
