<svg width="30" height="30" viewBox="0 0 30 30" fill="none" xmlns="http://www.w3.org/2000/svg">
<g clip-path="url(#clip0_4_10)">
<path d="M30 28.2325L22.1725 20.405C24.2058 17.9182 25.2055 14.7451 24.9648 11.542C24.7241 8.33879 23.2615 5.35067 20.8795 3.19565C18.4974 1.04064 15.3782 -0.116383 12.1671 -0.0360928C8.95587 0.044197 5.89838 1.35566 3.62702 3.62702C1.35566 5.89838 0.044197 8.95587 -0.0360928 12.1671C-0.116383 15.3782 1.04064 18.4974 3.19565 20.8795C5.35067 23.2615 8.33879 24.7241 11.542 24.9648C14.7451 25.2055 17.9182 24.2058 20.405 22.1725L28.2325 30L30 28.2325ZM12.5 22.5C10.5222 22.5 8.58879 21.9135 6.9443 20.8147C5.29981 19.7159 4.01808 18.1541 3.26121 16.3268C2.50433 14.4996 2.3063 12.4889 2.69215 10.5491C3.078 8.60929 4.03041 6.82746 5.42893 5.42893C6.82746 4.03041 8.60929 3.078 10.5491 2.69215C12.4889 2.3063 14.4996 2.50433 16.3268 3.26121C18.1541 4.01808 19.7159 5.29981 20.8147 6.9443C21.9135 8.58879 22.5 10.5222 22.5 12.5C22.497 15.1513 21.4425 17.6931 19.5678 19.5678C17.6931 21.4425 15.1513 22.497 12.5 22.5Z" fill="#A2A2A2"/>
</g>
<defs>
<clipPath id="clip0_4_10">
<rect width="30" height="30" fill="white"/>
</clipPath>
</defs>
</svg>
